<svg width="760" height="112" viewBox="0 0 760 112" fill="none" xmlns="http://www.w3.org/2000/svg">
<g filter="url(#filter0_d_41_236)">
<path d="M753.5 57.1965L754.5 102.696H11C10.6667 102.696 15.5 88.6965 18 87.1965C20.5 85.6965 27 82.6965 27 82.6965C27.5 82.1965 32.2 79.4965 47 72.6965C48 72.1965 53.5 70.2965 67.5 66.6965C68.1667 66.1965 73.5 64.1965 89.5 60.1965H102L118.5 53.6965L145.5 40.6965C146 40.1965 151.6 38.3965 170 35.1965C173.167 34.5298 180 33.1965 182 33.1965H188.5C191 33.1965 193.5 29.1965 194.5 28.6965C195.5 28.1965 218 19.6965 218 19.6965L238.5 14.6965L253.5 12.1965C257.833 11.1965 266.8 9.19648 268 9.19648H281L293.5 10.6965L311.5 13.6965L338.5 13.6965C340 13.6965 343 11.9965 355 7.19648C355.4 6.79648 367.167 3.36314 370 2.69648L389 2.19648C394 1.69648 406.5 2.62505 408 2.19648C415 0.196469 414.333 1.19648 417.5 1.69648L428 4.19648L448 9.19648C455 10.6965 468 13.1965 469.5 13.6965C469.974 13.8546 473.168 15.6965 474.668 16.6965L489.668 29.1965C491 30.1965 501.696 39.1364 507 41.1965C519 52.7965 522.17 55.8988 522.255 56C531.749 67.09 545.5 61.1965 545.5 61.1965C545.5 61.1965 562.5 48.6965 563 48.1965C563.5 47.6965 572 41.6965 572 41.6965C572 41.6965 582.208 36.2954 590 36.1965C592.561 36.164 600 37.6965 604 39.6965L621 49.6965L652 64.1965C662.833 66.1965 685.2 70.3965 688 71.1965C690.8 71.9965 698.167 70.1965 701.5 69.1965C706.667 67.5298 716.5 63.6965 717.5 63.1965C718.5 62.6965 735 57.1965 739.5 55.6965C743.1 54.4965 750.333 56.1965 753.5 57.1965Z" fill="#48742C" fill-opacity="0.82" shape-rendering="crispEdges"/>
<path d="M4 102.696H11M522 55.6965C522.085 55.799 522.17 55.9002 522.255 56M11 102.696H754.5L753.5 57.1965C750.333 56.1965 743.1 54.4965 739.5 55.6965C735 57.1965 718.5 62.6965 717.5 63.1965C716.5 63.6965 706.667 67.5298 701.5 69.1965C698.167 70.1965 690.8 71.9965 688 71.1965C685.2 70.3965 662.833 66.1965 652 64.1965L621 49.6965L604 39.6965C600 37.6965 592.561 36.164 590 36.1965C582.208 36.2954 572 41.6965 572 41.6965C572 41.6965 563.5 47.6965 563 48.1965C562.5 48.6965 545.5 61.1965 545.5 61.1965C545.5 61.1965 531.749 67.09 522.255 56M11 102.696C10.6667 102.696 15.5 88.6965 18 87.1965C20.5 85.6965 27 82.6965 27 82.6965C27.5 82.1965 32.2 79.4965 47 72.6965C48 72.1965 53.5 70.2965 67.5 66.6965C68.1667 66.1965 73.5 64.1965 89.5 60.1965H102L118.5 53.6965L145.5 40.6965C146 40.1965 151.6 38.3965 170 35.1965C173.167 34.5298 180 33.1965 182 33.1965C184 33.1965 186 33.1965 188.5 33.1965C191 33.1965 193.5 29.1965 194.5 28.6965C195.5 28.1965 218 19.6965 218 19.6965L238.5 14.6965L253.5 12.1965C257.833 11.1965 266.8 9.19648 268 9.19648C269.2 9.19648 277.167 9.19648 281 9.19648L293.5 10.6965L311.5 13.6965L338.5 13.6965C340 13.6965 343 11.9965 355 7.19648C355.4 6.79648 367.167 3.36314 370 2.69648L389 2.19648C394 1.69648 406.5 2.62505 408 2.19648C415 0.196469 414.333 1.19648 417.5 1.69648L428 4.19648L448 9.19648C455 10.6965 468 13.1965 469.5 13.6965C469.974 13.8546 473.168 15.6965 474.668 16.6965L489.668 29.1965C491 30.1965 501.696 39.1364 507 41.1965C519 52.7965 522.17 55.8988 522.255 56" stroke="#6B7F89" shape-rendering="crispEdges"/>
</g>
<defs>
<filter id="filter0_d_41_236" x="0" y="0.500046" width="759.011" height="110.696" filterUnits="userSpaceOnUse" color-interpolation-filters="sRGB">
<feFlood flood-opacity="0" result="BackgroundImageFix"/>
<feColorMatrix in="SourceAlpha" type="matrix" values="0 0 0 0 0 0 0 0 0 0 0 0 0 0 0 0 0 0 127 0" result="hardAlpha"/>
<feOffset dy="4"/>
<feGaussianBlur stdDeviation="2"/>
<feComposite in2="hardAlpha" operator="out"/>
<feColorMatrix type="matrix" values="0 0 0 0 0 0 0 0 0 0 0 0 0 0 0 0 0 0 0.25 0"/>
<feBlend mode="normal" in2="BackgroundImageFix" result="effect1_dropShadow_41_236"/>
<feBlend mode="normal" in="SourceGraphic" in2="effect1_dropShadow_41_236" result="shape"/>
</filter>
</defs>
</svg>
