<svg width="43" height="31" viewBox="0 0 43 31" fill="none" xmlns="http://www.w3.org/2000/svg">
<path d="M22 1C12.4545 1 4.30273 7.01267 1 15.5C4.30273 23.9873 12.4545 30 22 30C31.5455 30 39.6973 23.9873 43 15.5C39.6973 7.01267 31.5455 1 22 1ZM22 25.1667C16.7309 25.1667 12.4545 20.836 12.4545 15.5C12.4545 10.164 16.7309 5.83333 22 5.83333C27.2691 5.83333 31.5455 10.164 31.5455 15.5C31.5455 20.836 27.2691 25.1667 22 25.1667ZM22 9.7C18.8309 9.7 16.2727 12.2907 16.2727 15.5C16.2727 18.7093 18.8309 21.3 22 21.3C25.1691 21.3 27.7273 18.7093 27.7273 15.5C27.7273 12.2907 25.1691 9.7 22 9.7Z" fill="#6B7F89"/>
<rect x="3.23413" width="47" height="6" rx="2" transform="rotate(32.6174 3.23413 0)" fill="#6B7F89"/>
</svg>
