<svg width="45" height="44" viewBox="0 0 45 44" fill="none" xmlns="http://www.w3.org/2000/svg">
<path d="M24 7C14.4545 7 6.30273 13.0127 3 21.5C6.30273 29.9873 14.4545 36 24 36C33.5455 36 41.6973 29.9873 45 21.5C41.6973 13.0127 33.5455 7 24 7ZM24 31.1667C18.7309 31.1667 14.4545 26.836 14.4545 21.5C14.4545 16.164 18.7309 11.8333 24 11.8333C29.2691 11.8333 33.5455 16.164 33.5455 21.5C33.5455 26.836 29.2691 31.1667 24 31.1667ZM24 15.7C20.8309 15.7 18.2727 18.2907 18.2727 21.5C18.2727 24.7093 20.8309 27.3 24 27.3C27.1691 27.3 29.7273 24.7093 29.7273 21.5C29.7273 18.2907 27.1691 15.7 24 15.7Z" fill="#BCC9CF"/>
</svg>
