<svg width="822" height="157" viewBox="0 0 822 157" fill="none" xmlns="http://www.w3.org/2000/svg">
<g filter="url(#filter0_d_41_237)">
<path d="M817 50.5C750.924 68.8713 724.421 83.3537 719.929 87.9821C688.629 112.762 668.053 126.078 661.677 129.638C571.605 146.728 536.5 147 524.5 148C477.5 128 461.564 110.59 457.362 106.674C379.462 78.0488 351.437 72.6726 345.206 75.1649L257.829 92.7885C245.947 95.4588 220.705 98.2358 214.793 87.9821C208.88 77.7283 194.296 62.0107 188.5 54C166.243 47.1642 130.893 48.2844 115.243 51.1326H78.7276C39.4296 38.7427 21.7802 28.8805 17.8678 25.4982L5 1H817V50.5Z" fill="#48742C" fill-opacity="0.82" shape-rendering="crispEdges"/>
<path d="M817 50.5C750.924 68.8713 724.421 83.3537 719.929 87.9821C688.629 112.762 668.053 126.078 661.677 129.638C571.605 146.728 536.5 147 524.5 148C477.5 128 461.564 110.59 457.362 106.674C379.462 78.0488 351.437 72.6726 345.206 75.1649L257.829 92.7885C245.947 95.4588 220.705 98.2358 214.793 87.9821C208.88 77.7283 194.296 62.0107 188.5 54C166.243 47.1642 130.893 48.2844 115.243 51.1326H78.7276C39.4296 38.7427 21.7802 28.8805 17.8678 25.4982L5 1H817V50.5Z" stroke="#6B7F89" shape-rendering="crispEdges"/>
</g>
<defs>
<filter id="filter0_d_41_237" x="0.172607" y="0.5" width="821.327" height="156.009" filterUnits="userSpaceOnUse" color-interpolation-filters="sRGB">
<feFlood flood-opacity="0" result="BackgroundImageFix"/>
<feColorMatrix in="SourceAlpha" type="matrix" values="0 0 0 0 0 0 0 0 0 0 0 0 0 0 0 0 0 0 127 0" result="hardAlpha"/>
<feOffset dy="4"/>
<feGaussianBlur stdDeviation="2"/>
<feComposite in2="hardAlpha" operator="out"/>
<feColorMatrix type="matrix" values="0 0 0 0 0 0 0 0 0 0 0 0 0 0 0 0 0 0 0.25 0"/>
<feBlend mode="normal" in2="BackgroundImageFix" result="effect1_dropShadow_41_237"/>
<feBlend mode="normal" in="SourceGraphic" in2="effect1_dropShadow_41_237" result="shape"/>
</filter>
</defs>
</svg>
