<svg width="312" height="678" viewBox="0 0 312 678" fill="none" xmlns="http://www.w3.org/2000/svg">
<path d="M310.5 676.5C257.7 582.5 257 562.5 255.5 544.5C255.5 544.5 261 512.5 255.5 495C250 477.5 223.5 440.5 211.5 429.5C199.5 418.5 138 394.5 138 394.5C138 394.5 61.9998 375.5 46.9998 366.5C31.9998 357.5 14.9998 335 7.49985 312C-0.000154972 289 -0.500081 284 6.49996 244C13.5 204 7.50005 204 35.5 172C63.5 140 72.4999 143.5 75.9998 108.5C79.4998 73.5 65.4999 51.5 59.4998 35C53.4998 18.5 57.9998 9.83333 59.4998 1" stroke="#8051A5" stroke-width="3" stroke-dasharray="4 4"/>
</svg>
